# xmcd
#
# Track frame offsets: 
#        150
#        18041
#        26294
#        37650
#        69175
#        83178
#        95375
#        104335
#        121123
#        133275
#        148257
#        159343
#        167328
#        180077
#        194073
#        206031
#        216269
#        227148
#        241987
#        256734
#        265024
#        278715
#        295934
#        306007
#        327267
#
# Disc length: 4593 seconds
#
# Revision: 0
# Processed by: cddbd v1.5.1PL0 Copyright (c) Steve Scherf et al.
# Submitted via: ExactAudioCopy v0.95a5
#
DISCID=4f11ef19
DTITLE=Johnny Cash and Bob Dylan - Land Of The Free, Home Of The Brave
DYEAR=1969
DGENRE=Country
TTITLE0=One Too Many Mornings
TTITLE1=Mountain Dew
TTITLE2=I Still Miss Someone
TTITLE3=Careless Love
TTITLE4=Matchbox
TTITLE5=That's All Right Mama
TTITLE6=Big River
TTITLE7=Girl From The North Country
TTITLE8=I Walk The Line
TTITLE9=You Are My Sunshine
TTITLE10=Ring Of Fire
TTITLE11=Guess Things Happen That Way
TTITLE12=Just A Closer Walk With Thee
TTITLE13=T For Texas
TTITLE14=T For Texas (Version 2)
TTITLE15=I Threw It All Away (Live On TV)
TTITLE16=Living The Blues (Live On TV)
TTITLE17=Girl From The North Country (Live On TV)
TTITLE18=Thousand Miles Behind
TTITLE19=Wo Ist Zuhause, Mama?
TTITLE20=Wichita Lineman
TTITLE21=Cowboy's Prayer
TTITLE22=That Lucky Old Sun
TTITLE23=The Wanderer (with U2)
TTITLE24=Indians
EXTD=
EXTT0=
EXTT1=
EXTT2=
EXTT3=
EXTT4=
EXTT5=
EXTT6=
EXTT7=
EXTT8=
EXTT9=
EXTT10=
EXTT11=
EXTT12=
EXTT13=
EXTT14=
EXTT15=
EXTT16=
EXTT17=
EXTT18=
EXTT19=
EXTT20=
EXTT21=
EXTT22=
EXTT23=
EXTT24=
PLAYORDER=
